<svg width="48" height="48" viewBox="0 0 48 48" fill="none" xmlns="http://www.w3.org/2000/svg">
<path d="M34.5 6L32.333 13.69L28 15.953L32.333 18.215L34.5 25L36.667 18.214L41 15.952L36.667 13.691L34.5 6ZM20 12L19 16L16 17L19 18L20 22L21 18L24 17L21 16L20 12ZM6 30C6 29.7348 6.10536 29.4804 6.29289 29.2929C6.48043 29.1054 6.73478 29 7 29H10C10.2652 29 10.5196 29.1054 10.7071 29.2929C10.8946 29.4804 11 29.7348 11 30V40.996C11 41.2612 10.8946 41.5156 10.7071 41.7031C10.5196 41.8906 10.2652 41.996 10 41.996H7C6.73478 41.996 6.48043 41.8906 6.29289 41.7031C6.10536 41.5156 6 41.2612 6 40.996V30ZM17.705 29.189C18.637 28.764 20.915 29.189 20.915 29.189L27.541 30.675C27.541 30.675 29.198 31.206 30.751 31.206C32.304 31.206 31.375 33.332 30.336 34.074C29.298 34.816 28.542 34.776 28.542 34.776L23.192 34.711C23.192 34.711 27.852 35.561 29.612 35.667C30.503 35.721 32.032 35.093 33.742 34.392C35.407 33.708 37.242 32.955 38.826 32.693C42.036 32.163 42.554 35.03 41.518 36.092C40.483 37.154 32.2 41.189 30.751 41.72C29.615 42.136 28.242 41.998 26.693 41.842C26.264 41.799 25.821 41.754 25.367 41.72C23.557 41.583 22.175 41.143 20.807 40.708C19.339 40.242 17.888 39.781 15.945 39.702C15.293 39.676 13.767 39.757 13 39.802V30.94C14.326 30.468 17.011 29.505 17.705 29.189Z" fill="black"/>
</svg>
