<svg width="48" height="48" viewBox="0 0 48 48" fill="none" xmlns="http://www.w3.org/2000/svg">
<path d="M26 43.14C22.6382 43.5563 19.2304 42.9124 16.2522 41.2984C13.2741 39.6845 10.8741 37.1808 9.38749 34.1371C7.90085 31.0933 7.40169 27.6613 7.95967 24.3202C8.51766 20.9791 10.105 17.8955 12.5 15.5L23.152 4.84801C23.377 4.62329 23.682 4.49707 24 4.49707C24.318 4.49707 24.623 4.62329 24.848 4.84801L35.5 15.5C37.6185 17.6171 39.1111 20.2781 39.8134 23.1896C40.5157 26.1011 40.4003 29.1499 39.48 32M32 40L36 44L44 36" stroke="black" stroke-width="3" stroke-linecap="round" stroke-linejoin="round"/>
</svg>
