<svg width="48" height="48" viewBox="0 0 48 48" fill="none" xmlns="http://www.w3.org/2000/svg">
<path fill-rule="evenodd" clip-rule="evenodd" d="M4 16C4 14.4087 4.63214 12.8826 5.75736 11.7574C6.88258 10.6321 8.4087 10 10 10H38C39.5913 10 41.1174 10.6321 42.2426 11.7574C43.3679 12.8826 44 14.4087 44 16V32C44 33.5913 43.3679 35.1174 42.2426 36.2426C41.1174 37.3679 39.5913 38 38 38H10C8.4087 38 6.88258 37.3679 5.75736 36.2426C4.63214 35.1174 4 33.5913 4 32V16ZM10 14H38C38.5304 14 39.0391 14.2107 39.4142 14.5858C39.7893 14.9609 40 15.4696 40 16V22H8V16C8 15.4696 8.21071 14.9609 8.58579 14.5858C8.96086 14.2107 9.46957 14 10 14ZM8 26V32C8 32.5304 8.21071 33.0391 8.58579 33.4142C8.96086 33.7893 9.46957 34 10 34H16V26H8ZM20 34H38C38.5304 34 39.0391 33.7893 39.4142 33.4142C39.7893 33.0391 40 32.5304 40 32V26H20V34Z" fill="black"/>
</svg>
