<svg width="48" height="48" viewBox="0 0 48 48" fill="none" xmlns="http://www.w3.org/2000/svg">
<path d="M32.34 25.59L21.09 36.84C20.8812 37.0488 20.6333 37.2144 20.3605 37.3274C20.0877 37.4404 19.7953 37.4986 19.5 37.4986C19.2047 37.4986 18.9123 37.4404 18.6395 37.3274C18.3667 37.2144 18.1188 37.0488 17.91 36.84C17.7012 36.6312 17.5356 36.3833 17.4226 36.1105C17.3096 35.8377 17.2514 35.5453 17.2514 35.25C17.2514 34.9547 17.3096 34.6623 17.4226 34.3895C17.5356 34.1167 17.7012 33.8688 17.91 33.66L25.317 26.25H5.25C4.65326 26.25 4.08097 26.0129 3.65901 25.591C3.23705 25.169 3 24.5967 3 24C3 23.4033 3.23705 22.831 3.65901 22.409C4.08097 21.9871 4.65326 21.75 5.25 21.75H25.317L17.91 14.34C17.7012 14.1312 17.5356 13.8833 17.4226 13.6105C17.3096 13.3377 17.2514 13.0453 17.2514 12.75C17.2514 12.1536 17.4883 11.5817 17.91 11.16C18.3317 10.7383 18.9036 10.5014 19.5 10.5014C20.0964 10.5014 20.6683 10.7383 21.09 11.16L32.34 22.41C32.549 22.6187 32.7148 22.8665 32.8279 23.1394C32.941 23.4122 32.9993 23.7047 32.9993 24C32.9993 24.2953 32.941 24.5878 32.8279 24.8606C32.7148 25.1335 32.549 25.3813 32.34 25.59ZM39 36.75V11.25C39 10.6533 39.2371 10.081 39.659 9.65901C40.081 9.23705 40.6533 9 41.25 9C41.8467 9 42.419 9.23705 42.841 9.65901C43.2629 10.081 43.5 10.6533 43.5 11.25V36.75C43.5 37.3467 43.2629 37.919 42.841 38.341C42.419 38.7629 41.8467 39 41.25 39C40.6533 39 40.081 38.7629 39.659 38.341C39.2371 37.919 39 37.3467 39 36.75Z" fill="black"/>
</svg>
