<svg width="48" height="48" viewBox="0 0 48 48" fill="none" xmlns="http://www.w3.org/2000/svg">
<path d="M19.5 12.5C19.5 8.63401 16.366 5.5 12.5 5.5C8.63401 5.5 5.5 8.63401 5.5 12.5V35.5C5.5 39.366 8.63401 42.5 12.5 42.5C16.366 42.5 19.5 39.366 19.5 35.5V12.5Z" stroke="black" stroke-linecap="round" stroke-linejoin="round"/>
<path d="M12.5 5.5C8.63401 5.5 5.5 8.63401 5.5 12.5C5.5 16.366 8.63401 19.5 12.5 19.5L35.5 19.5C39.366 19.5 42.5 16.366 42.5 12.5C42.5 8.63401 39.366 5.5 35.5 5.5L12.5 5.5Z" stroke="black" stroke-linecap="round" stroke-linejoin="round"/>
<path d="M17.45 7.59054C14.7163 4.85687 10.2842 4.85687 7.55052 7.59054C4.81685 10.3242 4.81685 14.7564 7.55052 17.49L23.814 33.7535C26.5476 36.4872 30.9798 36.4872 33.7135 33.7535C36.4471 31.0198 36.4471 26.5877 33.7135 23.854L17.45 7.59054Z" stroke="black" stroke-linecap="round" stroke-linejoin="round"/>
</svg>
