<svg width="40" height="40" viewBox="0 0 40 40" fill="none" xmlns="http://www.w3.org/2000/svg">
<path d="M1.49165 0C1.09604 0 0.716634 0.175595 0.436895 0.488156C0.157156 0.800716 0 1.22464 0 1.66667C0 2.10869 0.157156 2.53262 0.436895 2.84518C0.716634 3.15774 1.09604 3.33333 1.49165 3.33333H2.22554C2.54944 3.33396 2.86436 3.45237 3.12271 3.67066C3.38105 3.88896 3.56878 4.19528 3.65753 4.54333L8.38905 23.0433C8.65666 24.0874 9.22121 25.0056 9.99735 25.6593C10.7735 26.3131 11.719 26.6666 12.691 26.6667H26.3217C27.2162 26.6668 28.0903 26.3674 28.831 25.8072C29.5718 25.2469 30.1452 24.4514 30.4774 23.5233L34.8748 11.2367C35.0556 10.7311 35.1228 10.1837 35.0705 9.64243C35.0182 9.10114 34.8481 8.58239 34.575 8.13153C34.3018 7.68067 33.934 7.31142 33.5037 7.05606C33.0733 6.80071 32.5936 6.66701 32.1063 6.66667H7.30312L6.52448 3.62667C6.25755 2.58258 5.69368 1.66395 4.9181 1.00965C4.14251 0.355356 3.19737 0.000947894 2.22554 0H1.49165ZM11.259 22.1233L8.15635 10H32.1033L27.7059 22.2867C27.5951 22.5956 27.404 22.8604 27.1573 23.047C26.9106 23.2335 26.6196 23.3333 26.3217 23.3333H12.691C12.3671 23.3327 12.0522 23.2143 11.7938 22.996C11.5355 22.7777 11.3477 22.4714 11.259 22.1233ZM13.4249 40C14.0125 40 14.5944 39.8707 15.1374 39.6194C15.6803 39.3681 16.1736 38.9998 16.5891 38.5355C17.0047 38.0712 17.3343 37.52 17.5592 36.9134C17.7841 36.3068 17.8998 35.6566 17.8998 35C17.8998 34.3434 17.7841 33.6932 17.5592 33.0866C17.3343 32.48 17.0047 31.9288 16.5891 31.4645C16.1736 31.0002 15.6803 30.6319 15.1374 30.3806C14.5944 30.1293 14.0125 30 13.4249 30C12.238 30 11.0998 30.5268 10.2606 31.4645C9.42137 32.4021 8.94991 33.6739 8.94991 35C8.94991 36.3261 9.42137 37.5979 10.2606 38.5355C11.0998 39.4732 12.238 40 13.4249 40ZM13.4249 36.6667C13.0293 36.6667 12.6498 36.4911 12.3701 36.1785C12.0904 35.866 11.9332 35.442 11.9332 35C11.9332 34.558 12.0904 34.134 12.3701 33.8215C12.6498 33.5089 13.0293 33.3333 13.4249 33.3333C13.8205 33.3333 14.1999 33.5089 14.4796 33.8215C14.7594 34.134 14.9165 34.558 14.9165 35C14.9165 35.442 14.7594 35.866 14.4796 36.1785C14.1999 36.4911 13.8205 36.6667 13.4249 36.6667ZM25.3581 40C25.9457 40 26.5276 39.8707 27.0706 39.6194C27.6135 39.3681 28.1068 38.9998 28.5223 38.5355C28.9379 38.0712 29.2675 37.52 29.4924 36.9134C29.7173 36.3068 29.833 35.6566 29.833 35C29.833 34.3434 29.7173 33.6932 29.4924 33.0866C29.2675 32.48 28.9379 31.9288 28.5223 31.4645C28.1068 31.0002 27.6135 30.6319 27.0706 30.3806C26.5276 30.1293 25.9457 30 25.3581 30C24.1712 30 23.033 30.5268 22.1938 31.4645C21.3546 32.4021 20.8831 33.6739 20.8831 35C20.8831 36.3261 21.3546 37.5979 22.1938 38.5355C23.033 39.4732 24.1712 40 25.3581 40ZM25.3581 36.6667C24.9625 36.6667 24.5831 36.4911 24.3033 36.1785C24.0236 35.866 23.8664 35.442 23.8664 35C23.8664 34.558 24.0236 34.134 24.3033 33.8215C24.5831 33.5089 24.9625 33.3333 25.3581 33.3333C25.7537 33.3333 26.1331 33.5089 26.4128 33.8215C26.6926 34.134 26.8497 34.558 26.8497 35C26.8497 35.442 26.6926 35.866 26.4128 36.1785C26.1331 36.4911 25.7537 36.6667 25.3581 36.6667Z" fill="black"/>
</svg>
