<svg width="48" height="48" viewBox="0 0 48 48" fill="none" xmlns="http://www.w3.org/2000/svg">
<path d="M24 33.7349C29.3765 33.7349 33.735 29.3764 33.735 23.9999C33.735 18.6234 29.3765 14.2649 24 14.2649C18.6235 14.2649 14.265 18.6234 14.265 23.9999C14.265 29.3764 18.6235 33.7349 24 33.7349Z" stroke="black" stroke-linecap="round" stroke-linejoin="round"/>
<path d="M23 5.80999C23.1973 5.78866 23.395 5.76999 23.593 5.75399C24.0697 5.74533 24.546 5.75533 25.022 5.78399M20.821 11.921C22.9024 11.3398 25.1021 11.3312 27.188 11.896M26.113 8.85999C24.7175 8.65187 23.2984 8.65861 21.905 8.87999M10.432 11.85C10.8755 11.3409 11.3469 10.8569 11.844 10.4M36.181 10.417C36.6802 10.8655 37.1542 11.3412 37.601 11.842M14.822 11.817C13.6918 12.6681 12.6852 13.672 11.831 14.8M13.202 17.692C14.2974 15.8301 15.8559 14.2833 17.726 13.202M30.322 13.196C32.1816 14.2845 33.7288 15.8345 34.814 17.696M36.198 14.79C35.3494 13.6677 34.35 12.6679 33.228 11.819M8.875 21.88C8.75594 22.6944 8.70277 23.5171 8.716 24.34C8.73722 24.9277 8.79232 25.5137 8.881 26.095M11.92 27.179C11.338 25.0966 11.33 22.8955 11.897 20.809M36.11 20.831C36.6592 22.9151 36.6564 25.1063 36.102 27.189M39.124 26.119C39.3345 24.725 39.3403 23.3077 39.141 21.912M5.811 25C5.78833 24.8027 5.76933 24.6053 5.754 24.408C5.75866 23.926 5.782 23.4447 5.824 22.964M42.218 23.01C42.23 23.204 42.239 23.3983 42.245 23.593C42.241 24.075 42.2177 24.5563 42.175 25.037M11.817 33.177C12.6681 34.3076 13.672 35.3145 14.8 36.169M17.692 34.798C15.8297 33.7024 14.2825 32.1435 13.201 30.273M34.797 30.308C33.7017 32.1703 32.1432 33.7174 30.273 34.799M33.177 36.183C34.3076 35.3319 35.3145 34.328 36.169 33.2M11.849 37.568C11.3403 37.1245 10.8565 36.6531 10.4 36.156M21.88 39.125C22.6944 39.2442 23.5171 39.2973 24.34 39.284C24.9277 39.2627 25.5136 39.2076 26.095 39.119M27.179 36.08C25.0966 36.662 22.8955 36.67 20.809 36.103M37.567 36.151C37.1235 36.6597 36.6521 37.1435 36.155 37.6M24.999 42.19C24.517 42.186 23.443 42.218 22.963 42.176" stroke="black" stroke-linecap="round" stroke-linejoin="round"/>
<path d="M9.107 38.8701L8.797 39.2001M2.953 23.9831L2.5 23.9981M9.129 9.10407L8.798 8.79507M24.015 2.95007L24 2.49707M38.894 9.12607L39.202 8.79507M45.048 24.0121L45.5 23.9971M38.873 38.8921L39.203 39.2001M23.986 45.0451L24.001 45.4971" stroke="black" stroke-linecap="round"/>
</svg>
