<svg width="40" height="40" viewBox="0 0 40 40" fill="none" xmlns="http://www.w3.org/2000/svg">
<g clip-path="url(#clip0_18_190)">
<path d="M20.0145 21.1438C18.8326 21.1438 17.6622 20.9111 16.5703 20.4588C15.4784 20.0066 14.4862 19.3437 13.6505 18.5081C12.8148 17.6724 12.1518 16.6804 11.6995 15.5885C11.2472 14.4967 11.0145 13.3265 11.0145 12.1447C11.0145 10.963 11.2472 9.79277 11.6995 8.70095C12.1518 7.60914 12.8148 6.61708 13.6505 5.78144C14.4862 4.9458 15.4784 4.28294 16.5703 3.83069C17.6622 3.37844 18.8326 3.14568 20.0145 3.14568C22.4014 3.14568 24.6906 4.09379 26.3784 5.78144C28.0662 7.4691 29.0145 9.75805 29.0145 12.1447C29.0145 14.5315 28.0662 16.8204 26.3784 18.5081C24.6906 20.1957 22.4014 21.1438 20.0145 21.1438ZM20.0005 6.37029e-07C17.366 -0.000857415 14.8046 0.865128 12.7112 2.46434C10.6179 4.06355 9.109 6.30712 8.41742 8.84887C7.72584 11.3906 7.88998 14.0893 8.88451 16.5285C9.87905 18.9677 11.6487 21.0119 13.9205 22.3457C6.54445 24.5655 1.00445 30.7808 0.0104485 38.5C-0.0835515 39.234 0.46245 39.8999 1.23045 39.9899C1.99645 40.0799 2.69645 39.5599 2.79045 38.826C3.87045 30.4469 11.1285 24.1375 19.9305 24.1375C28.7805 24.1375 36.1325 30.4589 37.2105 38.826C37.3045 39.5599 38.0045 40.0799 38.7704 39.9899C39.5385 39.8999 40.0845 39.234 39.9905 38.5C38.9985 30.8128 33.4285 24.6055 26.0405 22.3657C28.3191 21.038 30.0968 18.9967 31.0988 16.5573C32.1007 14.118 32.2711 11.4166 31.5836 8.87079C30.8961 6.32494 29.3889 4.07646 27.2952 2.47301C25.2015 0.869547 22.6378 0.000418481 20.0005 6.37029e-07Z" fill="black"/>
</g>
<defs>
<clipPath id="clip0_18_190">
<rect width="40" height="40" fill="white" transform="matrix(-1 0 0 1 40 0)"/>
</clipPath>
</defs>
</svg>
