<?xml version="1.0" encoding="utf-8"?>
<svg version="1.1" id="Layer_1" xmlns="http://www.w3.org/2000/svg" xmlns:xlink="http://www.w3.org/1999/xlink" x="0px" y="0px"
	 viewBox="145 145 450 500" >
<style type="text/css">
	.st0{fill:#5C5C5C;}
	.st1{clip-path:url(#SVGID_2_);fill:url(#SVGID_3_);}
	.st2{clip-path:url(#SVGID_5_);fill:none;stroke:#B5B5B5;stroke-width:0.5;stroke-miterlimit:10;}
	.st3{clip-path:url(#SVGID_5_);fill:red;}
	.st4{clip-path:url(#SVGID_7_);fill:url(#SVGID_8_);}
	
		.st5{clip-path:url(#SVGID_10_);fill:red;stroke:#B5B5B5;stroke-width:0.5;stroke-linecap:round;stroke-miterlimit:10;stroke-dasharray:2,5;}
	.st6{clip-path:url(#SVGID_12_);fill:url(#SVGID_13_);}
	
		.st7{clip-path:url(#SVGID_15_);fill:none;stroke:#B5B5B5;stroke-width:0.5;stroke-linecap:round;stroke-miterlimit:10;stroke-dasharray:2,5;}
	.st8{clip-path:url(#SVGID_15_);fill:#B5B5B5;}
	.st9{clip-path:url(#SVGID_15_);fill:#848484;}
	.st10{clip-path:url(#SVGID_17_);fill:url(#SVGID_18_);}
	.st11{clip-path:url(#SVGID_20_);fill:none;stroke:#EDEDED;stroke-width:0.5;stroke-miterlimit:10;}
	.st12{clip-path:url(#SVGID_20_);fill:none;stroke:#B5B5B5;stroke-width:0.5;stroke-linecap:round;stroke-miterlimit:10;}
	
		.st13{clip-path:url(#SVGID_20_);fill:none;stroke:#B5B5B5;stroke-width:0.5;stroke-linecap:round;stroke-miterlimit:10;stroke-dasharray:1.977,9.887;}
	.st14{clip-path:url(#SVGID_20_);fill:none;stroke:#B5B5B5;stroke-width:0.5;stroke-miterlimit:10;}
	.st15{clip-path:url(#SVGID_20_);fill:none;stroke:#B5B5B5;stroke-width:0.25;stroke-miterlimit:10;}
	.st16{clip-path:url(#SVGID_22_);fill:url(#SVGID_23_);}
	.st17{clip-path:url(#SVGID_25_);fill:#CDCDCD;}
	
		.st18{clip-path:url(#SVGID_25_);fill:none;stroke:#B5B5B5;stroke-width:0.5;stroke-linecap:round;stroke-miterlimit:10;stroke-dasharray:2,5;}
	.st19{clip-path:url(#SVGID_25_);fill:#848484;}
	.st20{clip-path:url(#SVGID_27_);fill:url(#SVGID_28_);}
	.st21{clip-path:url(#SVGID_30_);fill:url(#SVGID_31_);}
	.st22{clip-path:url(#SVGID_33_);fill:url(#SVGID_34_);}
	.st23{clip-path:url(#SVGID_36_);fill:url(#SVGID_37_);}
	.st24{clip-path:url(#SVGID_39_);fill:url(#SVGID_40_);}
	.st25{clip-path:url(#SVGID_42_);fill:url(#SVGID_43_);}
	.st26{clip-path:url(#SVGID_45_);fill:url(#SVGID_46_);}
	.st27{clip-path:url(#SVGID_48_);fill:url(#SVGID_49_);}
	.st28{clip-path:url(#SVGID_51_);fill:url(#SVGID_52_);}
	.st29{fill:#8C8C8C;}
	.st30{fill:none;stroke:#B5B5B5;stroke-width:0.25;stroke-miterlimit:10;}
	.st31{clip-path:url(#SVGID_54_);fill:url(#SVGID_55_);}
	.st32{fill:none;stroke:#B5B5B5;stroke-width:0.5;stroke-linecap:round;stroke-miterlimit:10;stroke-dasharray:2,5;}
	.st33{clip-path:url(#SVGID_57_);fill:url(#SVGID_58_);}
	.st34{clip-path:url(#SVGID_60_);fill:url(#SVGID_61_);}
</style>
<rect class="st0" width="768" height="768"/>
<g>
	<defs>
		<path id="SVGID_1_" d="M160.5,421.3c-25.7,9.3-27.5,18.9-30.4,21.2c0,0,19.6,3,35.5,3.6c7,0.3,19.8,0.8,32.2,1.3
			c13.5-22.4,1.1-38,0-39.3C185.6,412.4,172.6,416.9,160.5,421.3"/>
	</defs>
	<clipPath id="SVGID_2_">
		<use xlink:href="#SVGID_1_"  style="overflow:visible;"/>
	</clipPath>
	
		<linearGradient id="SVGID_3_" gradientUnits="userSpaceOnUse" x1="-0.1798" y1="768.296" x2="0.8202" y2="768.296" gradientTransform="matrix(-1.4118 -59.0588 -59.0588 1.4118 45545.9883 -630.9216)">
		<stop  offset="0" style="stop-color:#E2E2E2"/>
		<stop  offset="7.072660e-002" style="stop-color:#E2E2E2"/>
		<stop  offset="0.987" style="stop-color:#F4F4F4"/>
		<stop  offset="1" style="stop-color:#F4F4F4"/>
	</linearGradient>
	<polygon class="st1" points="130.1,449.3 129.2,408.1 211.3,406.1 212.3,447.4 	"/>
</g>
<g>
	<defs>
		<rect id="SVGID_4_" x="-21" y="11.1" width="768" height="768"/>
	</defs>
	<clipPath id="SVGID_5_">
		<use xlink:href="#SVGID_4_"  style="overflow:visible;"/>
	</clipPath>
	<path class="st2" d="M441,444.2c0,0,15.5-32.6,25.3-44.8c9.8-12.2,31.2-24.3,61.7-31.6"/>
	<line class="st2" x1="441" y1="444.2" x2="441" y2="444.2"/>
	<path class="st3" d="M506.3,351.6c0,0,1.8,1.5,5.6,2.2c3.8,0.6,4.7,1.5,6.8,4.8c2.1,3.3,8.1,13.1,14.4,16.4
		c6.4,3.3,14.4,3.2,26.1-1.2c11.8-4.4,17.6-2.1,23.8,5c6.2,7,12,10.5,12,10.5h0l-0.2-2.9c0,0-6.1-5-12.1-10.8
		c-6-5.9-12.6-7.2-18.2-5.2s-15.8,6.1-22.7,5.8c-6.9-0.3-12.2-5.2-16.5-12.2c-4.4-7-6.1-10.1-9.5-10.9c-3.4-0.8-7.2-1.8-7.2-1.8
		C507.9,351.3,507.1,351.5,506.3,351.6" />
</g>
<g>
	<defs>
		<path id="SVGID_6_" d="M571.9,319.6c-9.9,3.9-23.3,22-55.3,29.8c-1.2,0.3-2.4,0.6-3.6,0.8c-1.5,0.3-2.9,0.6-4.3,0.9
			c0,0,3.9,1,7.2,1.8c3.4,0.7,5.1,3.9,9.5,10.9c4.4,7,9.6,11.9,16.5,12.2c6.9,0.3,17.1-3.8,22.7-5.8c5.6-2,12.1-0.6,18.2,5.2
			c6,5.8,12.1,10.8,12.1,10.8l0,0c0.2,0.1,1.2,0.6,1.3-0.1c0-0.1-0.1-0.4-0.2-1l0,0c-1-5.1-6.3-26.9-9.5-40.6
			c-3.2-13.6-4.4-25.5-11.4-25.5C574.1,318.9,573.1,319.2,571.9,319.6"/>
	</defs>
	<clipPath id="SVGID_7_">
		<use xlink:href="#SVGID_6_"  style="overflow:visible;"/>
	</clipPath>
	
		<linearGradient id="SVGID_8_" gradientUnits="userSpaceOnUse" x1="0.24" y1="767.8709" x2="1.2401" y2="767.8709" gradientTransform="matrix(-87.4809 0 0 -87.4809 617.2029 67526.9688)">
		<stop  offset="0" style="stop-color:#E2E2E2"/>
		<stop  offset="7.072660e-002" style="stop-color:#E2E2E2"/>
		<stop  offset="0.987" style="stop-color:#F4F4F4"/>
		<stop  offset="1" style="stop-color:#F4F4F4"/>
	</linearGradient>
	<rect x="508.7" y="318.9" class="st4" width="87.5" height="67.9"/>
</g>
<g>
	<defs>
		<rect id="SVGID_9_" x="-21" y="11.1" width="768" height="768"/>
	</defs>
	<clipPath id="SVGID_10_">
		<use xlink:href="#SVGID_9_"  style="overflow:visible;"/>
	</clipPath>
	<path class="st5" d="M513,350.3c0,0,1.8,0.9,4.6,1.6c2.8,0.7,4.9,3,7.2,6.6c2.3,3.6,7.5,12.7,13.4,14.8c6,2.1,16.8-1.9,22.4-4
		c5.6-2,12.9-3,18.5,0.7c6.1,4,17,15.1,17,15.1"/>
</g>
<g>
	<defs>
		<path id="SVGID_11_" d="M466.3,399.4c-9.7,12.1-25.1,44.3-25.3,44.8c42.4-0.5,92.6-1.2,116.6-2c42.2-1.5,41.3-7.8,41.3-7.8
			l-3.7-45.3h0c0,0-5.8-3.4-12-10.5c-6.2-7-12-9.4-23.8-5c-11.8,4.4-19.8,4.5-26.1,1.2c-2.6-1.4-5.2-3.9-7.5-6.6
			C496.6,375.7,475.8,387.5,466.3,399.4"/>
	</defs>
	<clipPath id="SVGID_12_">
		<use xlink:href="#SVGID_11_"  style="overflow:visible;"/>
	</clipPath>
	
		<linearGradient id="SVGID_13_" gradientUnits="userSpaceOnUse" x1="-0.1344" y1="768.2493" x2="0.8656" y2="768.2493" gradientTransform="matrix(-0.4706 -81.8824 -81.8824 0.4706 63426.6836 82.6269)">
		<stop  offset="0" style="stop-color:#E2E2E2"/>
		<stop  offset="7.072660e-002" style="stop-color:#E2E2E2"/>
		<stop  offset="0.987" style="stop-color:#F4F4F4"/>
		<stop  offset="1" style="stop-color:#F4F4F4"/>
	</linearGradient>
	<polygon class="st6" points="441,445.1 440.6,368.3 599.8,367.4 600.2,444.2 	"/>
</g>
<g>
	<defs>
		<rect id="SVGID_14_" x="-21" y="11.1" width="768" height="768"/>
	</defs>
	<clipPath id="SVGID_15_">
		<use xlink:href="#SVGID_14_"  style="overflow:visible;"/>
	</clipPath>
	<path class="st7" d="M445.6,444.1c0,0,9-22.2,17-33.9c8-11.7,12.8-19,36.3-28.3c23.5-9.3,30.6-9.7,30.6-9.7"/>
	<path class="st8" d="M237.1,448.2c0.5,0,1,0,1.6,0c0,0,2.5-20.6,6.9-26.3c4.4-5.7,15.4-11.3,37.9-20.1
		c22.5-8.7,54.5-27.6,61.7-31.6c7.2-4,51.6-27.3,51.6-27.3s15-8.1,21.5-10.1c6.6-2.1,9.6-2,9.6-2l-3.4-1.4c0,0-15.5,4.7-19.5,6.8
		c-4,2.1-66.4,34.6-75.3,39.4c-8.8,4.8-36.8,19.9-56.4,28c-19.6,8.1-26.2,10.7-30.8,19.3C237.9,431.4,237.1,448.2,237.1,448.2"/>
	<path class="st9" d="M353.8,338.9c1.9-0.8,3.8-1.7,5.6-2.6C357.5,335.9,355.6,336.4,353.8,338.9"/>
	<path class="st9" d="M379.4,325.4c0.8-0.5,1.7-1,2.6-1.6C379.6,323.6,379.4,325.4,379.4,325.4"/>
</g>
<g>
	<defs>
		<path id="SVGID_16_" d="M557.6,442.2c-42.2,1.5-165.1,2.3-185,3.2c-19.9,0.9-132.4,2.9-144.4,2.9c-12,0-48.6-1.7-62.6-2.2
			c-15.9-0.6-35.5-3.6-35.5-3.6c-2.9,2.3-4.7,24.6,0,35.5c4.7,10.9,10.9,9.3,10.9,9.3s145.4,6.3,219.6,5.4c29.2-0.4,59-0.2,86.8,0.1
			c42.9,0.3,81.1,0.6,105.7-1.1c40.5-2.9,50.3-2.9,50-11.2c-0.3-8.3,0.3-31.9-1.2-37.3c-1.5-5.4-3.1-8.9-3.1-8.9
			S599.8,440.6,557.6,442.2"/>
	</defs>
	<clipPath id="SVGID_17_">
		<use xlink:href="#SVGID_16_"  style="overflow:visible;"/>
	</clipPath>
	
		<linearGradient id="SVGID_18_" gradientUnits="userSpaceOnUse" x1="-0.2139" y1="767.5792" x2="0.7861" y2="767.5792" gradientTransform="matrix(-0.1478 -51.7385 51.7385 -0.1478 -39348.8945 599.0486)">
		<stop  offset="0" style="stop-color:#D0D0D0"/>
		<stop  offset="0.7918" style="stop-color:#E5E5E5"/>
		<stop  offset="0.987" style="stop-color:#EBEBEB"/>
		<stop  offset="1" style="stop-color:#EBEBEB"/>
	</linearGradient>
	<polygon class="st10" points="603.6,493.7 603.4,433 125.2,434.4 125.4,495 	"/>
</g>
<g>
	<defs>
		<rect id="SVGID_19_" x="-21" y="11.1" width="768" height="768"/>
	</defs>
	<clipPath id="SVGID_20_">
		<use xlink:href="#SVGID_19_"  style="overflow:visible;"/>
	</clipPath>
	<path class="st11" d="M590.6,454.8c0,0-9,3.1-42,3.9c-33,0.8-132.2,3.4-149.5,3.7c-17.3,0.3-70.3,1.7-103.2,1.5
		c-32.9-0.2-39.2,0-39.2,0"/>
	<path class="st12" d="M601.5,441.9c0,0-0.2,0.2-0.8,0.6"/>
	<path class="st13" d="M591.3,445.2c-5.6,1.1-14.3,2.2-27.6,3c-34.3,2.1-116.3,2.4-189.4,4c-73.1,1.5-161.6,2.1-198.4,0.8
		c-22.5-0.8-35.4-2.1-42-3"/>
	<path class="st12" d="M128.9,449.2c-0.7-0.1-1-0.2-1-0.2"/>
	<line class="st14" x1="256.1" y1="491.4" x2="256.9" y2="453.7"/>
	<path class="st14" d="M588.1,488.9c0,0,3.7-17.5,3.2-25.9c-0.5-6.9-2-16.2-2.3-17.4"/>
	<line class="st15" x1="331" y1="346.7" x2="331" y2="346.7"/>
	<path class="st15" d="M284.4,370.3C284.4,370.3,284.4,370.3,284.4,370.3"/>
</g>
<g>
	<defs>
		<path id="SVGID_21_" d="M407.9,307.7c-2.8,1.9-11,6.9-18.7,11.6c-2.5,1.5-5,3.1-7.2,4.4c-0.9,0.6-1.8,1.1-2.6,1.6
			c-1.3,0.8-2.5,1.6-3.4,2.1c-1.8,1.2-5.1,3-9.1,5.1c-2.3,1.2-4.8,2.5-7.5,3.7c-1.8,0.9-3.7,1.8-5.6,2.6c-8.4,3.8-17.2,7.1-22.9,7.8
			c-2.3,0.7-2.7,2.2-3.1,3.3c-0.2,0.6-0.4,1-0.8,1.2c-0.3,0.2-0.9,0.2-1.5,0.2c-1.1,0.1-2.4,0.1-3.4,1c-0.3,0.3-0.6,0.6-0.8,1.1
			c-1.1,2.3-2.7,3.2-4.4,3.4c-0.3,0-0.5,0-0.8,0.1c-2.1,0.1-10.5,4.4-15.8,6.8c-5.2,2.4-15.3,6.3-15.9,6.6c0,0,0,0,0,0
			c-9,4.3-17.9,8.9-26.9,13.3c-9,4.4-18.1,8.8-27.4,12.6c-1.8,0.7-3.6,1.4-5.4,2.1c-1.8,0.7-3.6,1.4-5.4,2.1c-1.8,0.7-3.6,1.3-5.4,2
			c-1.8,0.7-3.6,1.3-5.4,2c-1.8,0.6-3.6,1.3-5.5,1.9c-1.7,0.6-3.5,1.2-5.2,1.8c1.1,1.3,13.5,16.9,0,39.3c12.3,0.5,24.4,0.9,30.4,0.9
			c1.5,0,4.6,0,8.8-0.1c0,0,0.8-16.8,5.4-25.4c4.6-8.6,11.2-11.1,30.8-19.3c19.6-8.1,47.6-23.2,56.4-28c8.8-4.8,71.3-37.3,75.3-39.4
			c4-2.1,19.5-6.8,19.5-6.8l3.4,1.4l12.8,10.7l3.7,0.6c-0.2-0.1-0.3-0.1-0.3-0.1s-0.4-9.4-6.4-15.8c-3.6-3.9-8.2-11.3-12.1-16.7
			c-2.7-3.7-5-6.4-6.6-6.6c-0.4,0-0.7-0.1-1-0.1C414.6,302.8,412.3,304.8,407.9,307.7"/>
	</defs>
	<clipPath id="SVGID_22_">
		<use xlink:href="#SVGID_21_"  style="overflow:visible;"/>
	</clipPath>
	
		<linearGradient id="SVGID_23_" gradientUnits="userSpaceOnUse" x1="5.417953e-002" y1="767.8477" x2="1.0542" y2="767.8477" gradientTransform="matrix(-60.5192 -71.5093 71.5093 -60.5192 -54554.3906 46883.7656)">
		<stop  offset="0" style="stop-color:#E2E2E2"/>
		<stop  offset="7.072660e-002" style="stop-color:#E2E2E2"/>
		<stop  offset="0.987" style="stop-color:#F4F4F4"/>
		<stop  offset="1" style="stop-color:#F4F4F4"/>
	</linearGradient>
	<polygon class="st16" points="516,387.6 341.4,181.2 126.1,363.5 300.7,569.8 	"/>
</g>
<g>
	<defs>
		<rect id="SVGID_24_" x="-21" y="11.1" width="768" height="768"/>
	</defs>
	<clipPath id="SVGID_25_">
		<use xlink:href="#SVGID_24_"  style="overflow:visible;"/>
	</clipPath>
	<path fill="red" class="st17" d="M284.5,370.3c0.6-0.3,10.7-4.2,15.9-6.5c5.4-2.4,13.8-6.7,15.8-6.8c0.3,0,0.5,0,0.8-0.1c0,0,2.3-3.6,5.3-4.5
		c1-0.8,2.3-0.9,3.3-1c0,0,0.5-1.3,2.3-1.4c0.4-1.1,0.9-2.6,3.1-3.3c-0.4,0-0.8,0.1-1.2,0.1c-11.6,0.6-10.4,7-23,12.8
		C302.9,361.4,294.4,365.5,284.5,370.3"/>
	<path class="st18" d="M235.7,448.2c0,0,0.2-16.6,4.6-26.9c4.4-10.3,21.8-14.6,34.3-20.4c12.5-5.8,54.3-27.9,70.7-36.2
		c16.4-8.4,39-20.1,46.7-24c7.6-4,22.5-11.4,28.4-12.2c5.8-0.7,0.1-4.9-1.2-6c-1.3-1.2-10.3-5.3-19.9-3"/>
	<path class="st18" d="M208.1,447.8c0,0,4.1-23.3,10.7-33.3l9.2,2.2l0.4-1.7c0,0-8-3.2-8.2-4.9c0,0-0.4-3.8,16.8-10
		c17.2-6.3,80.9-38.8,88.2-42.3c7.2-3.6,42.1-25.4,42.1-25.4"/>
	<path class="st18" d="M205.5,447.7c0,0,5.1-30.7,14.8-37.6"/>
	<path class="st19" d="M241.1,406.9c0.7,1,2.6,1,4.2-0.2c1.6-1.1,2.3-2.9,1.6-3.9c-0.7-1-2.6-1-4.2,0.2
		C241.1,404.1,240.4,405.9,241.1,406.9"/>
	<path class="st19" d="M268.6,395.2c0.7,1,2.6,1,4.2-0.2c1.6-1.1,2.3-2.9,1.6-3.9c-0.7-1-2.6-1-4.2,0.2
		C268.5,392.4,267.8,394.2,268.6,395.2"/>
	<path class="st19" d="M293.9,382.8c0.7,1,2.6,1,4.2-0.2c1.6-1.1,2.5-3.4,1.7-4.4c-0.7-1-2.8-0.5-4.4,0.7
		C293.9,380,293.2,381.7,293.9,382.8"/>
	<path class="st19" d="M320,369.4c0.7,1,2.6,1,4.2-0.2c1.6-1.1,2.3-2.9,1.6-3.9c-0.7-1-2.6-1-4.2,0.2
		C319.9,366.6,319.2,368.4,320,369.4"/>
	<path class="st19" d="M344.7,355.6c0.7,1,2.6,1,4.2-0.2c1.6-1.1,2.3-2.9,1.6-3.9c-0.7-1-2.6-1-4.2,0.2
		C344.7,352.8,344,354.5,344.7,355.6"/>
	<path class="st19" d="M369.8,342.2c0.7,1,2.6,1,4.2-0.2c1.6-1.1,2.3-2.9,1.6-3.9c-0.7-1-2.6-1-4.2,0.2
		C369.8,339.4,369.1,341.1,369.8,342.2"/>
	<path class="st19" d="M394.7,329.6c0.7,1,2.6,1,4.2-0.2c1.6-1.1,2.3-2.9,1.6-3.9c-0.7-1-2.6-1-4.2,0.2
		C394.7,326.8,394,328.6,394.7,329.6"/>
</g>
<g>
	<defs>
		<path id="SVGID_26_" d="M252.4,382.8c-1.4,0.5-3.4,1.3-4,1.5c-2.2,0.9-7.5,16.8-8,18.6c-1.1,4.1,1.5,3.6,1.5,3.6s3.9-1.8,5-3
			c1.9-1.9,9-15.7,7.5-19.8c-0.2-0.7-0.9-1.1-1.5-1.1C252.7,382.7,252.5,382.7,252.4,382.8"/>
	</defs>
	<clipPath id="SVGID_27_">
		<use xlink:href="#SVGID_26_"  style="overflow:visible;"/>
	</clipPath>
	
		<linearGradient id="SVGID_28_" gradientUnits="userSpaceOnUse" x1="-0.1737" y1="766.7161" x2="0.8263" y2="766.7161" gradientTransform="matrix(-6.3057 -17.0828 17.0828 -6.3057 -12847.8789 5235.4058)">
		<stop  offset="0" style="stop-color:#848484"/>
		<stop  offset="1.615340e-007" style="stop-color:#848484"/>
		<stop  offset="3.522496e-002" style="stop-color:#959595"/>
		<stop  offset="0.1035" style="stop-color:#B0B0B0"/>
		<stop  offset="0.1819" style="stop-color:#C6C6C6"/>
		<stop  offset="0.2735" style="stop-color:#D7D7D7"/>
		<stop  offset="0.3868" style="stop-color:#E2E2E2"/>
		<stop  offset="0.5457" style="stop-color:#E9E9E9"/>
		<stop  offset="0.987" style="stop-color:#EBEBEB"/>
		<stop  offset="1" style="stop-color:#EBEBEB"/>
	</linearGradient>
	<polygon class="st20" points="263.8,404 253.9,377.3 231.4,385.6 241.3,412.3 	"/>
</g>
<g>
	<defs>
		<path id="SVGID_29_" d="M255.7,380.7c-1.5,1-2.3,2-1.8,2.3c0.5,0.2,10,8.4,10.9,9c0.9,0.6,4,3.4,5.1,2.8c0.7-0.4,2.3-2,3.4-3.2
			c0.4-0.4,0.5-0.9,0.4-1.4c-0.1-0.4-0.2-0.7-0.5-1c-0.8-0.7-1.9-1.7-3.1-2.8c-3.7-3.4-8.6-7.7-9.2-8c-0.1,0-0.2-0.1-0.4-0.1
			C259.2,378.4,257,379.8,255.7,380.7"/>
	</defs>
	<clipPath id="SVGID_30_">
		<use xlink:href="#SVGID_29_"  style="overflow:visible;"/>
	</clipPath>
	
		<linearGradient id="SVGID_31_" gradientUnits="userSpaceOnUse" x1="0.2393" y1="767.2889" x2="1.2393" y2="767.2889" gradientTransform="matrix(-23.6178 -22.0892 22.0892 -23.6178 -16667.0332 18525.6484)">
		<stop  offset="0" style="stop-color:#848484"/>
		<stop  offset="1.615340e-007" style="stop-color:#848484"/>
		<stop  offset="3.522496e-002" style="stop-color:#959595"/>
		<stop  offset="0.1035" style="stop-color:#B0B0B0"/>
		<stop  offset="0.1819" style="stop-color:#C6C6C6"/>
		<stop  offset="0.2735" style="stop-color:#D7D7D7"/>
		<stop  offset="0.3868" style="stop-color:#E2E2E2"/>
		<stop  offset="0.5457" style="stop-color:#E9E9E9"/>
		<stop  offset="0.987" style="stop-color:#EBEBEB"/>
		<stop  offset="1" style="stop-color:#EBEBEB"/>
	</linearGradient>
	<polygon class="st21" points="282.2,386.4 262.9,368.3 244.9,387.5 264.2,405.6 	"/>
</g>
<g>
	<defs>
		<path id="SVGID_32_" d="M272,373.7c-0.2,1.1-1.9,11.6-2,12.7c1.2,1.1,2.3,2.1,3.1,2.8c0.3,0.3,0.5,0.6,0.5,1
			c0.8-2,6.9-17.6,6.5-19.7c-0.1-0.5-0.4-0.6-1-0.6C277,370,272.2,372.8,272,373.7"/>
	</defs>
	<clipPath id="SVGID_33_">
		<use xlink:href="#SVGID_32_"  style="overflow:visible;"/>
	</clipPath>
	
		<linearGradient id="SVGID_34_" gradientUnits="userSpaceOnUse" x1="-0.4711" y1="766.9963" x2="0.5289" y2="766.9963" gradientTransform="matrix(-1.0701 -21.3248 21.3248 -1.0701 -16080.7295 1202.8201)">
		<stop  offset="0" style="stop-color:#848484"/>
		<stop  offset="1.615340e-007" style="stop-color:#848484"/>
		<stop  offset="3.522496e-002" style="stop-color:#959595"/>
		<stop  offset="0.1035" style="stop-color:#B0B0B0"/>
		<stop  offset="0.1819" style="stop-color:#C6C6C6"/>
		<stop  offset="0.2735" style="stop-color:#D7D7D7"/>
		<stop  offset="0.3868" style="stop-color:#E2E2E2"/>
		<stop  offset="0.5457" style="stop-color:#E9E9E9"/>
		<stop  offset="0.987" style="stop-color:#EBEBEB"/>
		<stop  offset="1" style="stop-color:#EBEBEB"/>
	</linearGradient>
	<polygon class="st22" points="281.5,390.2 280.5,369.5 269,370 270,390.8 	"/>
</g>
<g>
	<defs>
		<path id="SVGID_35_" d="M279.8,370.1c0,0-2.1,2.5,0.2,3.9c2.3,1.4,14.4,8.9,16,8.1c2-1,2.9-2,3.2-2.9c0,0,0.9-1.6-0.2-2.8
			c-0.1-0.1-0.3-0.3-0.4-0.4c-0.6-0.4-2.2-1.3-4.1-2.4v0c-4.3-2.3-10.2-5.4-10.9-5.5c-0.1,0-0.1,0-0.2,0
			C282.3,368.2,280.4,369.4,279.8,370.1"/>
	</defs>
	<clipPath id="SVGID_36_">
		<use xlink:href="#SVGID_35_"  style="overflow:visible;"/>
	</clipPath>
	
		<linearGradient id="SVGID_37_" gradientUnits="userSpaceOnUse" x1="0.3713" y1="767.2428" x2="1.3713" y2="767.2428" gradientTransform="matrix(-23.5541 -16.6714 16.6714 -23.5541 -12480.0391 18462.8887)">
		<stop  offset="0" style="stop-color:#848484"/>
		<stop  offset="1.615340e-007" style="stop-color:#848484"/>
		<stop  offset="3.522496e-002" style="stop-color:#959595"/>
		<stop  offset="0.1035" style="stop-color:#B0B0B0"/>
		<stop  offset="0.1819" style="stop-color:#C6C6C6"/>
		<stop  offset="0.2735" style="stop-color:#D7D7D7"/>
		<stop  offset="0.3868" style="stop-color:#E2E2E2"/>
		<stop  offset="0.5457" style="stop-color:#E9E9E9"/>
		<stop  offset="0.987" style="stop-color:#EBEBEB"/>
		<stop  offset="1" style="stop-color:#EBEBEB"/>
	</linearGradient>
	<polygon class="st23" points="307,373.1 285.2,357.7 270.8,378 292.6,393.5 	"/>
</g>
<g>
	<defs>
		<path id="SVGID_38_" d="M295.7,362.9c0,2-1.3,10.5-1.3,10.9v0c1.9,1.1,3.5,2,4.1,2.4c0.2,0.1,0.3,0.2,0.4,0.4
			c0,0,4.4-16.6,3.9-18.4c-0.1-0.3-0.3-0.4-0.7-0.4C300.4,357.6,295.7,361.1,295.7,362.9"/>
	</defs>
	<clipPath id="SVGID_39_">
		<use xlink:href="#SVGID_38_"  style="overflow:visible;"/>
	</clipPath>
	
		<linearGradient id="SVGID_40_" gradientUnits="userSpaceOnUse" x1="-0.4982" y1="767.1862" x2="0.5018" y2="767.1862" gradientTransform="matrix(1.3758 -24.6115 24.6115 1.3758 -18582.7441 -687.3167)">
		<stop  offset="0" style="stop-color:#848484"/>
		<stop  offset="1.615340e-007" style="stop-color:#848484"/>
		<stop  offset="3.522496e-002" style="stop-color:#959595"/>
		<stop  offset="0.1035" style="stop-color:#B0B0B0"/>
		<stop  offset="0.1819" style="stop-color:#C6C6C6"/>
		<stop  offset="0.2735" style="stop-color:#D7D7D7"/>
		<stop  offset="0.3868" style="stop-color:#E2E2E2"/>
		<stop  offset="0.5457" style="stop-color:#E9E9E9"/>
		<stop  offset="0.987" style="stop-color:#EBEBEB"/>
		<stop  offset="1" style="stop-color:#EBEBEB"/>
	</linearGradient>
	<polygon class="st24" points="303.4,377 304.4,357.7 294.4,357.1 293.3,376.4 	"/>
</g>
<g>
	<defs>
		<path id="SVGID_41_" d="M302.1,359c-1.1,1.9,0.4,2.6,0.4,2.6c6.1,1.3,13.7,5.4,16,6.7c2.2,1.3,5.4-0.5,6.6-2.6
			c1.2-2.1-0.5-3.8-0.5-3.8c-2.5-2-14.7-6.4-16.1-6.5c-0.1,0-0.1,0-0.2,0C306.7,355.4,303.2,357.2,302.1,359"/>
	</defs>
	<clipPath id="SVGID_42_">
		<use xlink:href="#SVGID_41_"  style="overflow:visible;"/>
	</clipPath>
	
		<linearGradient id="SVGID_43_" gradientUnits="userSpaceOnUse" x1="0.2598" y1="767.5217" x2="1.2598" y2="767.5217" gradientTransform="matrix(-37.3758 -24.2293 24.2293 -37.3758 -18256.5 29066.332)">
		<stop  offset="0" style="stop-color:#848484"/>
		<stop  offset="1.615340e-007" style="stop-color:#848484"/>
		<stop  offset="3.522496e-002" style="stop-color:#959595"/>
		<stop  offset="0.1035" style="stop-color:#B0B0B0"/>
		<stop  offset="0.1819" style="stop-color:#C6C6C6"/>
		<stop  offset="0.2735" style="stop-color:#D7D7D7"/>
		<stop  offset="0.3868" style="stop-color:#E2E2E2"/>
		<stop  offset="0.5457" style="stop-color:#E9E9E9"/>
		<stop  offset="0.987" style="stop-color:#EBEBEB"/>
		<stop  offset="1" style="stop-color:#EBEBEB"/>
	</linearGradient>
	<polygon class="st25" points="332.7,359.6 308.4,343.8 294.5,365.4 318.8,381.1 	"/>
</g>
<g>
	<defs>
		<path id="SVGID_44_" d="M333.1,344.5c-1.5,0.3-5.1,3.3-5,5.9c0.1,1.3,9.3,5.2,13.8,5.5c4.5,0.3,7.1-2.6,7.7-3.9
			c0.6-1.3-1.2-2.6-1.2-2.6c-5.4-3.9-13.2-4.9-15-4.9C333.3,344.4,333.1,344.4,333.1,344.5"/>
	</defs>
	<clipPath id="SVGID_45_">
		<use xlink:href="#SVGID_44_"  style="overflow:visible;"/>
	</clipPath>
	
		<linearGradient id="SVGID_46_" gradientUnits="userSpaceOnUse" x1="0.2796" y1="767.5121" x2="1.2796" y2="767.5121" gradientTransform="matrix(-35.3885 -22.5478 22.5478 -35.3885 -16942.3535 27526.873)">
		<stop  offset="0" style="stop-color:#848484"/>
		<stop  offset="1.615340e-007" style="stop-color:#848484"/>
		<stop  offset="3.522496e-002" style="stop-color:#959595"/>
		<stop  offset="0.1035" style="stop-color:#B0B0B0"/>
		<stop  offset="0.1819" style="stop-color:#C6C6C6"/>
		<stop  offset="0.2735" style="stop-color:#D7D7D7"/>
		<stop  offset="0.3868" style="stop-color:#E2E2E2"/>
		<stop  offset="0.5457" style="stop-color:#E9E9E9"/>
		<stop  offset="0.987" style="stop-color:#EBEBEB"/>
		<stop  offset="1" style="stop-color:#EBEBEB"/>
	</linearGradient>
	<polygon class="st26" points="355.5,347.8 334.4,334.3 322.6,352.8 343.8,366.3 	"/>
</g>
<g>
	<defs>
		<path id="SVGID_47_" d="M352.3,335.8c-0.7,2.9,1.6,3.1,1.6,3.1c1.8-2.5,3.7-3,5.6-2.6c3.2,0.7,6.3,4.3,8,5.4
			c2.6,1.8,5.7-0.9,5.7-0.9c1.6-1.5,1.7-1.9,1.5-2.9c-0.2-0.7-4.2-3.4-7.7-5.4c-1.4-0.8-2.7-1.5-3.7-1.9c-0.5-0.2-1.1-0.3-1.8-0.3
			C357.8,330.4,352.9,333.4,352.3,335.8"/>
	</defs>
	<clipPath id="SVGID_48_">
		<use xlink:href="#SVGID_47_"  style="overflow:visible;"/>
	</clipPath>
	
		<linearGradient id="SVGID_49_" gradientUnits="userSpaceOnUse" x1="6.323726e-002" y1="767.3141" x2="1.0632" y2="767.3141" gradientTransform="matrix(-18.648 -28.5835 28.5835 -18.648 -21559.4766 14660.9727)">
		<stop  offset="0" style="stop-color:#848484"/>
		<stop  offset="1.615340e-007" style="stop-color:#848484"/>
		<stop  offset="3.522496e-002" style="stop-color:#959595"/>
		<stop  offset="0.1035" style="stop-color:#B0B0B0"/>
		<stop  offset="0.1819" style="stop-color:#C6C6C6"/>
		<stop  offset="0.2735" style="stop-color:#D7D7D7"/>
		<stop  offset="0.3868" style="stop-color:#E2E2E2"/>
		<stop  offset="0.5457" style="stop-color:#E9E9E9"/>
		<stop  offset="0.987" style="stop-color:#EBEBEB"/>
		<stop  offset="1" style="stop-color:#EBEBEB"/>
	</linearGradient>
	<polygon class="st27" points="380.8,339.6 367.8,319.7 345.5,334.3 358.5,354.2 	"/>
</g>
<g>
	<defs>
		<path id="SVGID_50_" d="M377.5,321.8c-1,2.5,1.9,3.6,1.9,3.6s0.2-1.8,2.6-1.6c2.4,0.2,8.2,2.6,11,4.6c2.8,2,5.2,0.4,6.2-1.5
			c0.3-0.6,0.4-1.2,0.3-1.7c-0.2-1.3-1.1-2.3-2.2-2.8c-1.1-0.4-3-1.2-6.4-2.4c-0.5-0.2-1.1-0.4-1.6-0.5c-1.8-0.5-3.4-0.7-4.8-0.7
			C380.7,318.6,378.2,320.1,377.5,321.8"/>
	</defs>
	<clipPath id="SVGID_51_">
		<use xlink:href="#SVGID_50_"  style="overflow:visible;"/>
	</clipPath>
	
		<linearGradient id="SVGID_52_" gradientUnits="userSpaceOnUse" x1="6.322829e-002" y1="767.2899" x2="1.0632" y2="767.2899" gradientTransform="matrix(-18.6507 -28.5875 28.5875 -18.6507 -21538.6895 14647.4121)">
		<stop  offset="0" style="stop-color:#848484"/>
		<stop  offset="1.615340e-007" style="stop-color:#848484"/>
		<stop  offset="3.522496e-002" style="stop-color:#959595"/>
		<stop  offset="0.1035" style="stop-color:#B0B0B0"/>
		<stop  offset="0.1819" style="stop-color:#C6C6C6"/>
		<stop  offset="0.2735" style="stop-color:#D7D7D7"/>
		<stop  offset="0.3868" style="stop-color:#E2E2E2"/>
		<stop  offset="0.5457" style="stop-color:#E9E9E9"/>
		<stop  offset="0.987" style="stop-color:#EBEBEB"/>
		<stop  offset="1" style="stop-color:#EBEBEB"/>
	</linearGradient>
	<polygon class="st28" points="404.9,326.8 392.7,308.1 371.2,322.1 383.4,340.8 	"/>
</g>
<g>
	<path class="st29" d="M317,356.9c1.8-0.2,3.3-1,4.4-3.4c0.2-0.5,0.5-0.8,0.8-1.1C319.3,353.3,317,356.9,317,356.9"/>
	<path class="st29" d="M325.6,351.4c0.6,0,1.1-0.1,1.5-0.2c0.4-0.2,0.6-0.7,0.8-1.2C326.1,350.1,325.6,351.4,325.6,351.4"/>
	<line class="st30" x1="327.9" y1="350" x2="327.9" y2="350"/>
</g>
<g>
	<defs>
		<path id="SVGID_53_" d="M418.2,332.8c-6.6,2.1-21.5,10.1-21.5,10.1s-44.4,23.3-51.6,27.3c-7.2,4-39.2,22.9-61.7,31.6
			c-22.5,8.7-33.4,14.4-37.9,20.1c-4.4,5.6-6.9,26.3-6.9,26.3c31.3-0.4,116.9-2,134-2.8c8.6-0.4,36.3-0.8,68.4-1.2
			c0.2-0.5,15.6-32.7,25.3-44.8c9.5-11.9,30.2-23.7,59.4-31c-3.2-3.8-5.7-7.9-7-9.8c-2.1-3.3-3-4.1-6.8-4.8
			c-1.3-0.2-2.4-0.5-3.2-0.9c-1.6-0.6-2.4-1.3-2.4-1.3c-25.5,4.4-39.6-0.4-45.2-2.6c-4.4-1.8-10.9-4.4-14.5-5.9
			c-1.1-0.5-1.9-0.8-2.3-1l0,0l-3.7-0.6l-12.8-10.7c0,0,0,0,0,0C427.5,330.8,424.4,330.8,418.2,332.8"/>
	</defs>
	<clipPath id="SVGID_54_">
		<use xlink:href="#SVGID_53_"  style="overflow:visible;"/>
	</clipPath>
	
		<linearGradient id="SVGID_55_" gradientUnits="userSpaceOnUse" x1="-9.522910e-002" y1="768.1797" x2="0.9048" y2="768.1797" gradientTransform="matrix(0 -116.8235 -116.8235 0 90123.6484 443.7647)">
		<stop  offset="0" style="stop-color:#E2E2E2"/>
		<stop  offset="7.072660e-002" style="stop-color:#E2E2E2"/>
		<stop  offset="0.987" style="stop-color:#F4F4F4"/>
		<stop  offset="1" style="stop-color:#F4F4F4"/>
	</linearGradient>
	<rect x="238.6" y="330.8" class="st31" width="287.1" height="117.4"/>
</g>
<g>
	<path class="st32" d="M479.4,387.7c0,0-13.1,1.6-42.2-16.5c-29-18.1-40.6-28.3-40.6-28.3"/>
</g>
<g>
	<defs>
		<path id="SVGID_56_" d="M443.8,342.3c0,0,3.2,1.4,11.5,6.1c8.3,4.7,17.9,7.7,29.3,8.4c11.4,0.6,24.1-3.9,24.1-3.9
			c-1.6-0.6-2.4-1.3-2.4-1.3c-25.5,4.4-39.6-0.4-45.2-2.6c-4.4-1.8-10.9-4.4-14.5-5.9c-1-0.4-1.8-0.7-2.2-0.9L443.8,342.3z"/>
	</defs>
	<clipPath id="SVGID_57_">
		<use xlink:href="#SVGID_56_"  style="overflow:visible;"/>
	</clipPath>
	
		<linearGradient id="SVGID_58_" gradientUnits="userSpaceOnUse" x1="1.529926e-002" y1="767.6708" x2="1.0153" y2="767.6708" gradientTransform="matrix(-38.5223 -64.8917 64.8917 -38.5223 -49326.6406 29943.4063)">
		<stop  offset="0" style="stop-color:#E2E2E2"/>
		<stop  offset="7.072660e-002" style="stop-color:#E2E2E2"/>
		<stop  offset="0.987" style="stop-color:#F4F4F4"/>
		<stop  offset="1" style="stop-color:#F4F4F4"/>
	</linearGradient>
	<polygon class="st33" points="515.4,353.4 491.8,313.6 437.1,346.1 460.7,385.9 	"/>
</g>
<g>
	<defs>
		<path id="SVGID_59_" d="M430.2,318.1c3.4,4.8,9.1,13.8,9.7,16.7c0.6,2.9,0.7,6.6,0.7,6.6l3.7,0.6c-0.2-0.1-0.3-0.1-0.3-0.1
			s-0.4-9.4-6.4-15.8c-3.6-3.9-8.2-11.3-12.1-16.7C426.5,311.7,428.2,315.2,430.2,318.1"/>
	</defs>
	<clipPath id="SVGID_60_">
		<use xlink:href="#SVGID_59_"  style="overflow:visible;"/>
	</clipPath>
	
		<linearGradient id="SVGID_61_" gradientUnits="userSpaceOnUse" x1="-0.9408" y1="768.5986" x2="5.924695e-002" y2="768.5986" gradientTransform="matrix(10.5348 -18.5289 -18.5289 -10.5348 14681.251 8413.8818)">
		<stop  offset="0" style="stop-color:#E2E2E2"/>
		<stop  offset="7.072660e-002" style="stop-color:#E2E2E2"/>
		<stop  offset="0.987" style="stop-color:#F4F4F4"/>
		<stop  offset="1" style="stop-color:#F4F4F4"/>
	</linearGradient>
	<polygon class="st34" points="411.4,334.1 430.1,301.3 458.3,317.4 439.7,350.2 	"/>
</g>
</svg>
