<?xml version="1.0" encoding="utf-8"?>
<svg version="1.1" id="Layer_1" xmlns="http://www.w3.org/2000/svg" xmlns:xlink="http://www.w3.org/1999/xlink" x="0px" y="0px"
	 viewBox="0 0 768 768" style="enable-background:new 0 0 768 768;" xml:space="preserve" fill="currentColor">
<style type="text/css">
	.st0{fill:url(#SVGID_1_);}
	.st1{fill:#B5B5B5;}
	.st2{fill:url(#SVGID_00000142895468540745449660000002102710820253837729_);}
	.st3{fill:url(#SVGID_00000083065507074769537280000003482964197021020046_);}
	.st4{fill:#CDCDCD;}
	.st5{fill:none;stroke:#EDEDED;stroke-width:0.5;stroke-miterlimit:10;}
	.st6{fill:none;stroke:#B5B5B5;stroke-width:0.5;stroke-linecap:round;stroke-miterlimit:10;}
	.st7{fill:none;stroke:#B5B5B5;stroke-width:0.5;stroke-linecap:round;stroke-miterlimit:10;stroke-dasharray:1.9774,9.8872;}
	.st8{fill:none;stroke:#B5B5B5;stroke-width:0.5;stroke-miterlimit:10;}
	.st9{fill:none;stroke:#FF0606;stroke-width:0.25;stroke-miterlimit:10;}
	.st10{fill:none;stroke:#B5B5B5;stroke-width:0.5;stroke-linecap:round;stroke-miterlimit:10;stroke-dasharray:2,5;}
	.st11{fill:#848484;}
	.st12{fill:url(#SVGID_00000056394445659480313800000000408996965109408414_);}
	.st13{fill:url(#SVGID_00000155135445134027782840000007056335133559098500_);}
	.st14{fill:url(#SVGID_00000071526202346678888600000006876714554966595250_);}
	.st15{fill:url(#SVGID_00000077320821024926723810000008818436139423406471_);}
	.st16{fill:url(#SVGID_00000123432719992171662140000006973904875433573297_);}
	.st17{fill:url(#SVGID_00000139985546040002898160000011206289081401503364_);}
	.st18{fill:url(#SVGID_00000124884593748431747160000012142191782856624293_);}
	.st19{fill:url(#SVGID_00000080914063174352202020000015924752897027307396_);}
	.st20{fill:url(#SVGID_00000117652209438257862210000004415422100921425289_);}
	.st21{fill:none;stroke:#B5B5B5;stroke-width:0.25;stroke-miterlimit:10;}
	.st22{fill:#8C8C8C;}
	.st23{fill:url(#SVGID_00000017499890169438640150000011561500812959604108_);}
	.st24{fill:url(#SVGID_00000000211786636225493690000004526876641063820466_);}
</style>
<g>
	<linearGradient id="SVGID_1_" gradientUnits="userSpaceOnUse" x1="386.1107" y1="485.5626" x2="386.2585" y2="433.8241" fill="currentColor">
		<stop  offset="0" style="stop-color:#D0D0D0"/>
		<stop  offset="0.7919" style="stop-color:#E5E5E5"/>
		<stop  offset="0.987" style="stop-color:#EBEBEB"/>
	</linearGradient>
	<path class="st0" d="M621.27,466.96c-4.7,10.89-10.93,9.32-10.93,9.32s-145.43,6.27-219.62,5.35
		c-74.18-0.92-151.99,1.83-192.5-1.07c-40.51-2.9-50.3-2.9-49.99-11.16c0.31-8.25-0.31-31.95,1.22-37.3
		c1.53-5.35,3.06-8.86,3.06-8.86s-0.92,6.26,41.27,7.79c42.19,1.53,165.1,2.29,184.97,3.21s132.35,2.91,144.38,2.91
		c12.04,0,48.63-1.68,62.6-2.18c15.9-0.58,35.54-3.56,35.54-3.56C624.14,433.71,625.97,456.06,621.27,466.96z" />
	<path class="st1" d="M245.06,340.46c0,0-1.84,1.53-5.63,2.16c-3.78,0.63-4.7,1.49-6.82,4.76c-2.12,3.26-8.1,13.1-14.44,16.39
		c-6.35,3.29-14.37,3.21-26.14-1.22c-11.78-4.44-17.58-2.07-23.78,4.97c-6.19,7.03-12,10.47-12,10.47h-0.01l0.24-2.87
		c0,0,6.08-4.99,12.1-10.83c6.02-5.85,12.61-7.23,18.17-5.22s15.77,6.06,22.7,5.79c6.93-0.27,12.16-5.22,16.51-12.17
		c4.36-6.96,6.08-10.13,9.46-10.87c3.38-0.75,7.23-1.79,7.23-1.79C243.46,340.18,244.27,340.33,245.06,340.46z"/>
	
		<linearGradient id="SVGID_00000126306783617471280970000003787266065207683743_" gradientUnits="userSpaceOnUse" x1="155.1691" y1="341.6161" x2="242.65" y2="341.6161">
		<stop  offset="0.0707" style="stop-color:#E2E2E2"/>
		<stop  offset="0.987" style="stop-color:#F4F4F4"/>
	</linearGradient>
	<path style="fill:url(#SVGID_00000126306783617471280970000003787266065207683743_);" d="M155.17,375.06
		c-0.01-0.08,0.06-0.44,0.18-1.05c0,0,0,0,0.01-0.01c1.04-5.07,6.26-26.88,9.53-40.65c3.67-15.44,4.66-28.74,14.6-24.84
		c9.94,3.9,23.31,22.01,55.3,29.81c1.21,0.3,2.41,0.57,3.58,0.83c1.46,0.32,2.89,0.61,4.28,0.88c0,0-3.85,1.04-7.23,1.79
		c-3.38,0.74-5.1,3.91-9.46,10.87c-4.35,6.95-9.58,11.9-16.51,12.17c-6.93,0.27-17.14-3.78-22.7-5.79s-12.15-0.63-18.17,5.22
		c-6.02,5.84-12.1,10.83-12.1,10.83l-0.02,0.01C156.28,375.22,155.22,375.75,155.17,375.06z"/>
	
		<linearGradient id="SVGID_00000173841884296083894230000001311359891512228008_" gradientUnits="userSpaceOnUse" x1="295.6142" y1="514.7549" x2="461.8614" y2="318.3177">
		<stop  offset="0.0707" style="stop-color:#E2E2E2"/>
		<stop  offset="0.987" style="stop-color:#F4F4F4"/>
	</linearGradient>
	<path style="fill:url(#SVGID_00000173841884296083894230000001311359891512228008_);" d="M590.89,410.2
		c-25.68-9.28-55.6-19.38-72.57-26.2c0,0-29.2-14.16-51.39-24.83c0,0-0.01,0-0.03-0.01c-0.63-0.25-10.74-4.18-15.92-6.55
		c-5.35-2.44-13.76-6.72-15.82-6.8c-0.26-0.01-0.51-0.03-0.76-0.06c-1.75-0.22-3.3-1.04-4.44-3.38c-0.23-0.47-0.52-0.83-0.84-1.11
		c-0.98-0.83-2.29-0.89-3.35-0.96c-0.6-0.03-1.12-0.06-1.46-0.22c-0.4-0.19-0.59-0.65-0.79-1.21c-0.4-1.09-0.87-2.57-3.12-3.28
		l-0.01-0.01c-5.62-0.66-14.4-3.99-22.84-7.79c-1.89-0.85-3.76-1.72-5.58-2.6c-2.65-1.27-5.18-2.54-7.46-3.72
		c-4.02-2.09-7.28-3.93-9.12-5.09c-0.94-0.59-2.11-1.32-3.45-2.15c-0.81-0.5-1.67-1.04-2.59-1.6c-2.22-1.36-4.7-2.88-7.24-4.43
		c-7.66-4.71-15.83-9.72-18.67-11.61c-4.82-3.21-7.13-5.34-10.97-4.88c-1.55,0.19-3.9,2.94-6.56,6.6
		c-3.93,5.42-8.53,12.81-12.13,16.68c-6.02,6.47-6.42,15.84-6.42,15.84s-0.09,0.04-0.27,0.11l-0.01,0.01
		c-0.41,0.17-1.23,0.51-2.32,0.96c-3.58,1.5-10.1,4.2-14.48,5.95c-5.6,2.24-19.76,7-45.22,2.6c0,0-0.79,0.66-2.41,1.29
		c-0.85,0.33-1.92,0.65-3.22,0.87c-3.78,0.63-4.7,1.49-6.82,4.76c-2.12,3.26-8.1,13.1-14.44,16.39c-6.35,3.29-14.37,3.21-26.14-1.22
		c-11.78-4.44-17.58-2.07-23.78,4.97c-6.19,7.03-12,10.47-12,10.47h-0.01l-3.73,45.25c0,0-0.92,6.26,41.27,7.79
		c42.19,1.53,165.1,2.29,184.97,3.21c17.09,0.79,102.73,2.37,133.99,2.8c0,0-2.45-20.61-6.88-26.26
		c-4.43-5.66-15.4-11.35-37.87-20.07c-22.47-8.71-54.46-27.63-61.68-31.64c-7.23-4.01-51.6-27.29-51.6-27.29
		s-14.96-8.08-21.55-10.14c-6.59-2.07-9.63-2.01-9.63-2.01l3.38-1.43c0,0,15.54,4.68,19.51,6.82c3.97,2.14,66.42,34.62,75.25,39.44
		c8.83,4.81,36.8,19.87,56.44,27.97c19.65,8.11,26.22,10.67,30.81,19.26c4.58,8.6,5.39,25.37,5.39,25.37
		c4.25,0.06,7.32,0.09,8.82,0.09c12.04,0,48.63-1.68,62.6-2.18c15.9-0.58,35.54-3.56,35.54-3.56
		C618.41,429.12,616.57,419.49,590.89,410.2z"/>
	<path class="st4" d="M466.9,359.16c-0.63-0.25-10.74-4.18-15.92-6.55c-5.35-2.44-13.76-6.72-15.82-6.8
		c-0.26-0.01-0.51-0.03-0.76-0.06c0,0-2.34-3.56-5.28-4.49c-0.98-0.83-2.29-0.89-3.35-0.96c0,0-0.47-1.28-2.25-1.43
		c-0.4-1.09-0.87-2.57-3.12-3.28c0.4,0.04,0.78,0.07,1.15,0.09c11.65,0.59,10.44,7,23.05,12.84
		C448.49,350.32,456.99,354.39,466.9,359.16z"/>
	<path class="st5" d="M160.79,443.69c0,0,9,3.09,42.02,3.85c33.02,0.76,132.23,3.36,149.5,3.67c17.27,0.31,70.32,1.68,103.18,1.53
		s39.2,0.01,39.2,0.01"/>
	<g>
		<g>
			<path class="st6" d="M149.86,430.73c0,0,0.17,0.21,0.81,0.57"/>
			<path class="st7" d="M160.12,434.11c5.63,1.1,14.29,2.24,27.55,3.04c34.28,2.06,116.33,2.45,189.4,3.97
				c73.07,1.53,161.58,2.14,198.42,0.76c22.54-0.84,35.43-2.14,42.04-3.03"/>
			<path class="st6" d="M622.43,438.1c0.67-0.13,0.98-0.2,0.98-0.2"/>
		</g>
	</g>
	<path class="st8" d="M310.35,433.07c0,0-15.52-32.61-25.3-44.84c-9.78-12.23-31.38-24.31-61.8-31.64"/>
	<line class="st9" x1="156.48" y1="375.12" x2="156.46" y2="375.13"/>
	<path class="st10" d="M238.37,339.15c0,0-1.78,0.93-4.57,1.62s-4.93,2.98-7.18,6.61s-7.47,12.67-13.43,14.79
		c-5.96,2.12-16.8-1.95-22.36-3.96c-5.56-2.01-12.85-2.96-18.46,0.69c-6.08,3.96-17.01,15.11-17.01,15.11"/>
	<path class="st10" d="M305.79,433.01c0,0-8.98-22.23-17.01-33.93c-8.03-11.69-12.84-18.97-36.34-28.26s-30.58-9.67-30.58-9.67"/>
	<path class="st1" d="M514.31,437.06c-0.51,0-1.03-0.01-1.57-0.02c0,0-2.45-20.61-6.88-26.26c-4.43-5.66-15.4-11.35-37.87-20.07
		c-22.47-8.71-54.46-27.63-61.68-31.64c-7.23-4.01-51.6-27.29-51.6-27.29s-14.96-8.08-21.55-10.14c-6.59-2.07-9.63-2.01-9.63-2.01
		l3.38-1.43c0,0,15.54,4.68,19.51,6.82c3.97,2.14,66.42,34.62,75.25,39.44c8.83,4.81,36.8,19.87,56.44,27.97
		c19.65,8.11,26.22,10.67,30.81,19.26C513.5,420.29,514.31,437.06,514.31,437.06z"/>
	<path class="st10" d="M271.98,376.59c0,0,13.14,1.63,42.15-16.49c29-18.11,40.58-28.32,40.58-28.32"/>
	<path class="st10" d="M515.68,437.08c0,0-0.23-16.55-4.59-26.87c-4.36-10.32-21.78-14.56-34.28-20.41
		c-12.5-5.85-54.34-27.86-70.74-36.23c-16.39-8.37-39.02-20.06-46.66-24.04s-22.55-11.43-28.36-12.15
		c-5.81-0.73-0.11-4.85,1.22-6.04c1.34-1.18,10.34-5.29,19.91-3"/>
	<path class="st10" d="M543.24,436.64c0,0-4.05-23.26-10.7-33.35l-9.25,2.22l-0.38-1.68c0,0,8.03-3.2,8.18-4.88
		c0,0,0.38-3.75-16.78-10.02c-17.16-6.27-80.94-38.79-88.17-42.34S384,321.2,384,321.2"/>
	<path class="st10" d="M545.83,436.54c0,0-5.12-30.72-14.75-37.6"/>
	
		<ellipse transform="matrix(0.5804 -0.8143 0.8143 0.5804 -107.7219 578.3361)" class="st11" cx="507.37" cy="393.7" rx="2.3" ry="3.55"/>
	
		<ellipse transform="matrix(0.5804 -0.8143 0.8143 0.5804 -109.7198 551.07)" class="st11" cx="479.91" cy="382.01" rx="2.3" ry="3.55"/>
	<path class="st11" d="M457.43,371.64c-0.74,1.04-2.63,0.95-4.23-0.19c-1.6-1.14-2.46-3.38-1.72-4.41c0.74-1.04,2.8-0.47,4.39,0.66
		S458.17,370.61,457.43,371.64z"/>
	
		<ellipse transform="matrix(0.5804 -0.8143 0.8143 0.5804 -110.2721 498.3866)" class="st11" cx="428.51" cy="356.2" rx="2.3" ry="3.55"/>
	
		<ellipse transform="matrix(0.5804 -0.8143 0.8143 0.5804 -109.3968 472.4165)" class="st11" cx="403.75" cy="342.37" rx="2.3" ry="3.55"/>
	
		<ellipse transform="matrix(0.5804 -0.8143 0.8143 0.5804 -109.025 446.3908)" class="st11" cx="378.68" cy="329" rx="2.3" ry="3.55"/>
	
		<ellipse transform="matrix(0.5804 -0.8143 0.8143 0.5804 -109.272 420.8414)" class="st11" cx="353.76" cy="316.46" rx="2.3" ry="3.55"/>
	
		<linearGradient id="SVGID_00000047779110445890925670000016038611063754934161_" gradientUnits="userSpaceOnUse" x1="500.6588" y1="392.6034" x2="506.9645" y2="375.5205">
		<stop  offset="1.615344e-07" style="stop-color:#848484"/>
		<stop  offset="0.0352" style="stop-color:#959595"/>
		<stop  offset="0.1035" style="stop-color:#B0B0B0"/>
		<stop  offset="0.1819" style="stop-color:#C6C6C6"/>
		<stop  offset="0.2735" style="stop-color:#D7D7D7"/>
		<stop  offset="0.3868" style="stop-color:#E2E2E2"/>
		<stop  offset="0.5457" style="stop-color:#E9E9E9"/>
		<stop  offset="0.987" style="stop-color:#EBEBEB"/>
	</linearGradient>
	<path style="fill:url(#SVGID_00000047779110445890925670000016038611063754934161_);" d="M509.49,395.38c0,0,2.56,0.42,1.49-3.63
		c-0.47-1.78-5.8-17.67-7.97-18.57c-0.58-0.24-2.61-1-4.01-1.52c-0.84-0.31-1.78,0.12-2.08,0.97c-1.44,4.09,5.59,17.9,7.52,19.78
		C505.64,393.56,509.49,395.38,509.49,395.38z"/>
	
		<linearGradient id="SVGID_00000180331999539510678940000006724001129617764787_" gradientUnits="userSpaceOnUse" x1="474.9213" y1="387.1514" x2="498.5392" y2="365.0622">
		<stop  offset="1.615344e-07" style="stop-color:#848484"/>
		<stop  offset="0.0352" style="stop-color:#959595"/>
		<stop  offset="0.1035" style="stop-color:#B0B0B0"/>
		<stop  offset="0.1819" style="stop-color:#C6C6C6"/>
		<stop  offset="0.2735" style="stop-color:#D7D7D7"/>
		<stop  offset="0.3868" style="stop-color:#E2E2E2"/>
		<stop  offset="0.5457" style="stop-color:#E9E9E9"/>
		<stop  offset="0.987" style="stop-color:#EBEBEB"/>
	</linearGradient>
	<path style="fill:url(#SVGID_00000180331999539510678940000006724001129617764787_);" d="M497.52,371.85
		c-0.45,0.22-10.04,8.4-10.9,9.03s-4.01,3.42-5.1,2.84c-0.69-0.36-2.28-2.02-3.37-3.2c-0.35-0.39-0.49-0.89-0.41-1.37
		c0.06-0.36,0.23-0.7,0.52-0.97c0.79-0.72,1.89-1.73,3.12-2.84c3.71-3.38,8.57-7.71,9.19-7.96c1.04-0.4,3.6,1.21,5.12,2.2
		C497.22,370.57,497.97,371.62,497.52,371.85z"/>
	
		<linearGradient id="SVGID_00000170994194158573458210000006853515487672597641_" gradientUnits="userSpaceOnUse" x1="475.624" y1="381.0111" x2="476.6941" y2="359.6863">
		<stop  offset="1.615344e-07" style="stop-color:#848484"/>
		<stop  offset="0.0352" style="stop-color:#959595"/>
		<stop  offset="0.1035" style="stop-color:#B0B0B0"/>
		<stop  offset="0.1819" style="stop-color:#C6C6C6"/>
		<stop  offset="0.2735" style="stop-color:#D7D7D7"/>
		<stop  offset="0.3868" style="stop-color:#E2E2E2"/>
		<stop  offset="0.5457" style="stop-color:#E9E9E9"/>
		<stop  offset="0.987" style="stop-color:#EBEBEB"/>
	</linearGradient>
	<path style="fill:url(#SVGID_00000170994194158573458210000006853515487672597641_);" d="M481.38,375.34
		c-1.23,1.11-2.33,2.12-3.12,2.84c-0.29,0.27-0.46,0.61-0.52,0.97c-0.78-1.98-6.87-17.58-6.5-19.66c0.38-2.22,7.87,1.99,8.1,3.13
		C479.56,363.71,481.2,374.17,481.38,375.34z"/>
	<path class="st9" d="M481.4,375.45c0,0-0.01-0.04-0.02-0.11"/>
	<path class="st9" d="M477.82,379.36c0,0-0.03-0.07-0.08-0.21"/>
	
		<linearGradient id="SVGID_00000112613853619098961050000015204772754825120682_" gradientUnits="userSpaceOnUse" x1="448.7745" y1="373.3474" x2="472.3286" y2="356.6761">
		<stop  offset="1.615344e-07" style="stop-color:#848484"/>
		<stop  offset="0.0352" style="stop-color:#959595"/>
		<stop  offset="0.1035" style="stop-color:#B0B0B0"/>
		<stop  offset="0.1819" style="stop-color:#C6C6C6"/>
		<stop  offset="0.2735" style="stop-color:#D7D7D7"/>
		<stop  offset="0.3868" style="stop-color:#E2E2E2"/>
		<stop  offset="0.5457" style="stop-color:#E9E9E9"/>
		<stop  offset="0.987" style="stop-color:#EBEBEB"/>
	</linearGradient>
	<path style="fill:url(#SVGID_00000112613853619098961050000015204772754825120682_);" d="M471.37,362.85
		c-2.26,1.41-14.38,8.94-15.99,8.14c-2.03-1.01-2.87-2.05-3.18-2.9c0,0-0.93-1.56,0.21-2.75c0.12-0.14,0.27-0.26,0.44-0.38
		c0.57-0.39,2.17-1.29,4.12-2.35c0,0,0,0,0-0.01c4.25-2.31,10.18-5.36,10.85-5.48c0.97-0.17,3.14,1.07,3.75,1.88
		C471.57,359,473.63,361.45,471.37,362.85z"/>
	
		<linearGradient id="SVGID_00000009590511815145153850000010920611857534127800_" gradientUnits="userSpaceOnUse" x1="453.5104" y1="369.2948" x2="452.1346" y2="344.6834">
		<stop  offset="1.615344e-07" style="stop-color:#848484"/>
		<stop  offset="0.0352" style="stop-color:#959595"/>
		<stop  offset="0.1035" style="stop-color:#B0B0B0"/>
		<stop  offset="0.1819" style="stop-color:#C6C6C6"/>
		<stop  offset="0.2735" style="stop-color:#D7D7D7"/>
		<stop  offset="0.3868" style="stop-color:#E2E2E2"/>
		<stop  offset="0.5457" style="stop-color:#E9E9E9"/>
		<stop  offset="0.987" style="stop-color:#EBEBEB"/>
	</linearGradient>
	<path style="fill:url(#SVGID_00000009590511815145153850000010920611857534127800_);" d="M456.97,362.6c0,0.01,0,0.01,0,0.01
		c-1.95,1.06-3.55,1.96-4.12,2.35c-0.17,0.12-0.32,0.24-0.44,0.38c0,0-4.43-16.59-3.91-18.42c0.51-1.84,7.15,2.77,7.16,4.81
		C455.67,353.72,456.91,362.22,456.97,362.6z"/>
	
		<linearGradient id="SVGID_00000171722010407621535300000012771062164727130033_" gradientUnits="userSpaceOnUse" x1="420.7703" y1="361.7201" x2="458.1461" y2="337.4908">
		<stop  offset="1.615344e-07" style="stop-color:#848484"/>
		<stop  offset="0.0352" style="stop-color:#959595"/>
		<stop  offset="0.1035" style="stop-color:#B0B0B0"/>
		<stop  offset="0.1819" style="stop-color:#C6C6C6"/>
		<stop  offset="0.2735" style="stop-color:#D7D7D7"/>
		<stop  offset="0.3868" style="stop-color:#E2E2E2"/>
		<stop  offset="0.5457" style="stop-color:#E9E9E9"/>
		<stop  offset="0.987" style="stop-color:#EBEBEB"/>
	</linearGradient>
	<path style="fill:url(#SVGID_00000171722010407621535300000012771062164727130033_);" d="M426.8,350.79c0,0-1.66,1.75-0.49,3.81
		s4.39,3.87,6.62,2.61c2.24-1.26,9.84-5.35,15.95-6.67c0,0,1.52-0.67,0.38-2.62c-1.15-1.95-4.89-3.86-6.34-3.67
		C441.46,344.43,429.29,348.81,426.8,350.79z"/>
	
		<linearGradient id="SVGID_00000010309188396079511290000007698262723692418701_" gradientUnits="userSpaceOnUse" x1="398.0392" y1="348.479" x2="433.4278" y2="325.9312">
		<stop  offset="1.615344e-07" style="stop-color:#848484"/>
		<stop  offset="0.0352" style="stop-color:#959595"/>
		<stop  offset="0.1035" style="stop-color:#B0B0B0"/>
		<stop  offset="0.1819" style="stop-color:#C6C6C6"/>
		<stop  offset="0.2735" style="stop-color:#D7D7D7"/>
		<stop  offset="0.3868" style="stop-color:#E2E2E2"/>
		<stop  offset="0.5457" style="stop-color:#E9E9E9"/>
		<stop  offset="0.987" style="stop-color:#EBEBEB"/>
	</linearGradient>
	<path style="fill:url(#SVGID_00000010309188396079511290000007698262723692418701_);" d="M402.92,338.2c0,0-1.78,1.29-1.18,2.64
		c0.6,1.35,3.27,4.18,7.74,3.9c4.47-0.29,13.75-4.26,13.82-5.53c0.13-2.53-3.55-5.53-5.02-5.88
		C417.56,333.16,408.83,333.9,402.92,338.2z"/>
	<path class="st11" d="M397.55,327.79c-1.89-0.85-3.76-1.72-5.58-2.6C393.85,324.77,395.79,325.3,397.55,327.79z"/>
	
		<linearGradient id="SVGID_00000124875005521472428820000018368713834960168092_" gradientUnits="userSpaceOnUse" x1="379.7567" y1="339.2862" x2="398.4047" y2="310.7028">
		<stop  offset="1.615344e-07" style="stop-color:#848484"/>
		<stop  offset="0.0352" style="stop-color:#959595"/>
		<stop  offset="0.1035" style="stop-color:#B0B0B0"/>
		<stop  offset="0.1819" style="stop-color:#C6C6C6"/>
		<stop  offset="0.2735" style="stop-color:#D7D7D7"/>
		<stop  offset="0.3868" style="stop-color:#E2E2E2"/>
		<stop  offset="0.5457" style="stop-color:#E9E9E9"/>
		<stop  offset="0.987" style="stop-color:#EBEBEB"/>
	</linearGradient>
	<path style="fill:url(#SVGID_00000124875005521472428820000018368713834960168092_);" d="M397.55,327.79
		c-1.76-2.49-3.7-3.02-5.58-2.6c-3.24,0.71-6.3,4.25-7.97,5.42c-2.64,1.83-5.71-0.89-5.71-0.89c-1.56-1.49-1.72-1.87-1.49-2.9
		c0.16-0.74,4.18-3.38,7.71-5.35c1.41-0.78,2.74-1.46,3.72-1.88c3.44-1.45,10.16,2.22,10.89,5.09
		C399.85,327.54,397.55,327.79,397.55,327.79z"/>
	<path class="st11" d="M371.94,314.23c-0.81-0.5-1.67-1.04-2.59-1.6C371.76,312.45,371.94,314.23,371.94,314.23z"/>
	
		<linearGradient id="SVGID_00000081618149060895138290000014164994141691100089_" gradientUnits="userSpaceOnUse" x1="355.8552" y1="323.6937" x2="374.5059" y2="295.1062">
		<stop  offset="1.615344e-07" style="stop-color:#848484"/>
		<stop  offset="0.0352" style="stop-color:#959595"/>
		<stop  offset="0.1035" style="stop-color:#B0B0B0"/>
		<stop  offset="0.1819" style="stop-color:#C6C6C6"/>
		<stop  offset="0.2735" style="stop-color:#D7D7D7"/>
		<stop  offset="0.3868" style="stop-color:#E2E2E2"/>
		<stop  offset="0.5457" style="stop-color:#E9E9E9"/>
		<stop  offset="0.987" style="stop-color:#EBEBEB"/>
	</linearGradient>
	<path style="fill:url(#SVGID_00000081618149060895138290000014164994141691100089_);" d="M371.94,314.23c0,0-0.18-1.78-2.59-1.6
		c-2.42,0.19-8.18,2.64-11.01,4.59c-2.82,1.95-5.16,0.35-6.19-1.53c-0.32-0.58-0.38-1.18-0.3-1.74c0.16-1.26,1.06-2.31,2.24-2.81
		c1.05-0.44,2.96-1.19,6.43-2.44c0.54-0.2,1.07-0.36,1.59-0.5c6.47-1.82,10.86,0.18,11.75,2.45
		C374.82,313.1,371.94,314.23,371.94,314.23z"/>
	<line class="st8" x1="495.31" y1="480.27" x2="494.46" y2="442.61"/>
	<path class="st8" d="M163.25,477.78c0,0-3.71-17.48-3.16-25.9c0.46-6.89,2.05-16.17,2.29-17.35"/>
	<line class="st21" x1="420.4" y1="335.59" x2="420.39" y2="335.58"/>
	<path class="st21" d="M466.93,359.17c0,0-0.01,0-0.03-0.01"/>
	<path class="st22" d="M434.4,345.75c-1.75-0.22-3.3-1.04-4.44-3.38c-0.23-0.47-0.52-0.83-0.84-1.11
		C432.06,342.19,434.4,345.75,434.4,345.75z"/>
	<path class="st22" d="M425.77,340.3c-0.6-0.03-1.12-0.06-1.46-0.22c-0.4-0.19-0.59-0.65-0.79-1.21
		C425.3,339.02,425.77,340.3,425.77,340.3z"/>
	<line class="st21" x1="423.52" y1="338.87" x2="423.51" y2="338.87"/>
	
		<linearGradient id="SVGID_00000130637795108329349610000002718718497534127786_" gradientUnits="userSpaceOnUse" x1="262.1753" y1="358.2857" x2="300.6976" y2="293.394">
		<stop  offset="0.0707" style="stop-color:#E2E2E2"/>
		<stop  offset="0.987" style="stop-color:#F4F4F4"/>
	</linearGradient>
	<path style="fill:url(#SVGID_00000130637795108329349610000002718718497534127786_);" d="M307.59,331.21c0,0-3.21,1.38-11.46,6.08
		c-8.26,4.7-17.95,7.74-29.33,8.37c-11.39,0.63-24.15-3.91-24.15-3.91c1.62-0.63,2.41-1.29,2.41-1.29
		c25.46,4.4,39.62-0.36,45.22-2.6c4.38-1.75,10.9-4.45,14.48-5.95c0.99-0.41,1.76-0.73,2.2-0.91L307.59,331.21z"/>
	
		<linearGradient id="SVGID_00000127749782713034686880000005914050056726931078_" gradientUnits="userSpaceOnUse" x1="308.1689" y1="329.3192" x2="327.6594" y2="295.039">
		<stop  offset="0.0707" style="stop-color:#E2E2E2"/>
		<stop  offset="0.987" style="stop-color:#F4F4F4"/>
	</linearGradient>
	<path style="fill:url(#SVGID_00000127749782713034686880000005914050056726931078_);" d="M325.91,298.31
		c-1,2.24-2.7,5.74-4.79,8.71c-3.38,4.81-9.11,13.76-9.69,16.68c-0.57,2.92-0.68,6.65-0.68,6.65l-3.66,0.59
		c0.18-0.07,0.27-0.11,0.27-0.11s0.4-9.37,6.42-15.84C317.38,311.12,321.98,303.73,325.91,298.31z"/>
</g>
</svg>
